<?xml version="1.0" encoding="utf-8"?>
<svg viewBox="0 0 205 183" xmlns="http://www.w3.org/2000/svg">
  <g transform="matrix(0.10000000149011612, 0, 0, -0.10000000149011612, -1.7763568394002505e-15, 183)" stroke="none" fill="#cc2c29">
    <path d="M0 915 l0 -915 1025 0 1025 0 0 915 0 915 -1025 0 -1025 0 0 -915z&#10;m1240 802 c105 -32 159 -57 235 -109 172 -116 281 -270 346 -488 21 -68 18&#10;-319 -4 -390 -49 -158 -107 -258 -209 -362 -83 -84 -130 -118 -231 -166 -138&#10;-67 -183 -76 -352 -76 -138 0 -157 3 -235 29 -47 16 -102 39 -122 52 -21 13&#10;-40 23 -43 23 -16 0 -106 71 -165 130 -116 115 -167 202 -221 380 -19 60 -19&#10;317 0 385 47 178 137 314 294 450 80 68 232 135 367 159 48 9 296 -4 340 -17z"/>
    <path d="M925 1640 c-88 -15 -129 -26 -174 -48 -25 -12 -48 -22 -53 -22 -16 0&#10;-113 -73 -166 -124 -50 -48 -142 -168 -142 -185 0 -4 -9 -27 -21 -51 -37 -77&#10;-51 -149 -51 -275 0 -146 21 -233 83 -349 91 -169 254 -293 461 -350 77 -22&#10;263 -21 337 0 263 77 434 239 515 489 22 68 26 97 26 206 0 129 -17 211 -67&#10;319 -71 155 -236 300 -403 355 -30 9 -65 21 -77 26 -33 12 -212 19 -268 9z&#10;m287 -343 c4 -7 6 -16 4 -22 -3 -5 -25 -62 -51 -125 -25 -63 -50 -124 -54&#10;-135 -5 -11 -21 -51 -36 -90 -31 -81 -38 -97 -57 -145 -8 -19 -33 -79 -54&#10;-134 -21 -54 -44 -100 -50 -103 -7 -2 -28 3 -48 11 -38 16 -38 16 -9 86 8 19&#10;18 44 22 55 5 11 13 31 19 45 6 14 62 150 124 303 l113 278 35 -6 c19 -4 38&#10;-12 42 -18z m-473 -168 l22 -29 -81 -80 c-44 -43 -80 -83 -80 -88 0 -5 34 -41&#10;75 -81 41 -40 75 -80 75 -90 -1 -21 -34 -61 -52 -61 -17 0 -228 213 -228 231&#10;0 20 221 238 235 233 7 -3 22 -18 34 -35z m738 -71 c62 -62 113 -118 113 -125&#10;0 -14 -217 -233 -231 -233 -10 0 -58 50 -59 61 0 4 36 42 80 85 44 43 80 81&#10;80 84 0 4 -36 43 -80 86 -44 43 -80 82 -80 86 0 9 50 68 58 68 4 0 57 -51 119&#10;-112z"/>
  </g>
</svg>